<svg width="469" height="311" viewBox="0 0 469 311" fill="none" xmlns="http://www.w3.org/2000/svg">
<mask id="mask0_1545_11256" style="mask-type:luminance" maskUnits="userSpaceOnUse" x="23" y="0" width="446" height="311">
<path d="M469 0H23V310.444H469V0Z" fill="white"/>
</mask>
<g mask="url(#mask0_1545_11256)">
<path d="M154.109 308.61L153.49 308.326C159.874 294.449 161.783 279.073 163.628 264.203L164.305 264.287C162.452 279.209 160.537 294.637 154.109 308.61Z" fill="black"/>
<path d="M237.111 227.834C242.7 225.444 244.607 211.299 256.765 208.455C260.772 207.518 266.72 210.936 263.791 215.049C262.216 217.263 258.279 216.137 256.379 218.079C248.808 225.813 264.344 229.56 268.451 221.575C270.557 217.482 267.493 212.764 269.377 209.207C272.033 204.194 278.062 210.896 277.992 215.548C281.559 202.511 290.141 217.064 282.815 227.575C285.135 226.059 291.287 220.696 293.371 225.848C294.821 229.433 286.978 234.852 282.997 239.256C287.142 237.399 291.831 241.634 287.499 245.214C281.096 250.504 254.879 249.491 243.127 243.621C241.098 238.2 238.715 232.912 237.111 227.834Z" fill="#FFB3A3"/>
<path d="M247.183 156.448C251.791 148.835 257.384 141.726 264.288 136.113C271.909 129.917 281.267 123.643 291.252 123.643C295.175 123.643 293.949 129.087 291.051 130.588C299.226 129.499 301.52 134.426 293.187 137.837C295.262 137.086 299.233 136.903 299.208 139.691C299.164 144.488 291.236 145.489 287.373 147.139C288.85 147.455 291.093 146.605 292.604 146.449C295.596 146.141 298.126 149.247 295.55 151.346C291.218 154.875 284.515 155.462 279.339 155.869C274.198 162.055 267.859 167.242 260.739 170.91C256.379 166.931 244.477 163.977 247.183 156.448Z" fill="#FFB3A3"/>
<path d="M353.138 300.154L362.01 218.542C362.135 217.399 363.194 216.528 364.459 216.528H390.135C391.59 216.528 392.727 217.667 392.584 218.98L383.761 300.154H353.138Z" fill="#AB9589"/>
<path d="M356.505 295.772L364.643 220.91H388.159L380.021 295.772H356.505Z" fill="#CFBFB6"/>
<path d="M282.315 300.154V309.901H382.152C383.041 309.901 383.762 309.181 383.762 308.292V300.154H282.315Z" fill="#B39C8F"/>
<path d="M273.373 300.154V308.315C273.373 309.191 274.083 309.901 274.959 309.901H325.32V300.154H273.373Z" fill="#A69185"/>
<path d="M309.735 300.154V308.383C309.735 309.222 310.415 309.901 311.253 309.901H382.438C383.168 309.901 383.759 309.31 383.759 308.58V300.154H309.735Z" fill="#C2A99B"/>
<path d="M384.05 228.209C380.851 228.209 378.339 228.203 375.843 228.196C373.382 228.19 370.938 228.185 367.869 228.185V226.886C370.939 226.886 373.384 226.892 375.846 226.898C378.341 226.904 380.852 226.91 384.05 226.91V228.209Z" fill="#B8AAA2"/>
<path d="M382.752 230.482C379.554 230.482 377.041 230.476 374.545 230.469C372.084 230.463 369.64 230.458 366.571 230.458V229.159C369.641 229.159 372.086 229.165 374.548 229.171C377.042 229.178 379.554 229.183 382.752 229.183V230.482Z" fill="#B8AAA2"/>
<path d="M384.05 232.755C380.851 232.755 378.339 232.748 375.843 232.742C373.382 232.736 370.938 232.731 367.869 232.731V231.432C370.939 231.432 373.384 231.438 375.846 231.444C378.341 231.45 380.852 231.456 384.05 231.456V232.755Z" fill="#B8AAA2"/>
<path d="M382.752 235.028C379.554 235.028 377.041 235.021 374.545 235.015C372.084 235.009 369.64 235.003 366.571 235.003V233.705C369.641 233.705 372.086 233.711 374.548 233.717C377.042 233.723 379.554 233.729 382.752 233.729V235.028Z" fill="#B8AAA2"/>
<path d="M383.402 238.924C380.203 238.924 377.69 238.917 375.194 238.911C372.733 238.905 370.29 238.899 367.22 238.899V237.601C370.291 237.601 372.736 237.607 375.197 237.613C377.692 237.619 380.204 237.625 383.402 237.625V238.924Z" fill="#B8AAA2"/>
<path d="M382.103 241.196C378.904 241.196 376.391 241.19 373.895 241.184C371.435 241.177 368.991 241.172 365.922 241.172V239.873C368.992 239.873 371.437 239.879 373.899 239.885C376.394 239.892 378.905 239.897 382.103 239.897V241.196Z" fill="#B8AAA2"/>
<path d="M383.402 243.469C380.203 243.469 377.69 243.462 375.194 243.456C372.733 243.45 370.29 243.444 367.22 243.444V242.146C370.291 242.146 372.736 242.152 375.197 242.158C377.692 242.164 380.204 242.17 383.402 242.17V243.469Z" fill="#B8AAA2"/>
<path d="M382.103 245.741C378.904 245.741 376.391 245.735 373.895 245.729C371.435 245.723 368.991 245.717 365.922 245.717V244.418C368.992 244.418 371.437 244.425 373.899 244.431C376.394 244.437 378.905 244.443 382.103 244.443V245.741Z" fill="#B8AAA2"/>
<path d="M381.453 249.638C378.255 249.638 375.742 249.631 373.246 249.625C370.785 249.619 368.342 249.614 365.272 249.614V248.315C368.342 248.315 370.788 248.321 373.249 248.327C375.744 248.333 378.256 248.339 381.453 248.339V249.638Z" fill="#B8AAA2"/>
<path d="M380.154 251.91C376.956 251.91 374.443 251.904 371.947 251.898C369.486 251.891 367.043 251.886 363.973 251.886V250.587C367.044 250.587 369.489 250.593 371.95 250.6C374.445 250.606 376.957 250.611 380.154 250.611V251.91Z" fill="#B8AAA2"/>
<path d="M381.453 254.183C378.255 254.183 375.742 254.176 373.246 254.17C370.785 254.164 368.342 254.159 365.272 254.159V252.86C368.342 252.86 370.788 252.866 373.249 252.872C375.744 252.878 378.256 252.884 381.453 252.884V254.183Z" fill="#B8AAA2"/>
<path d="M380.154 256.456C376.956 256.456 374.443 256.449 371.947 256.443C369.486 256.437 367.043 256.431 363.973 256.431V255.133C367.044 255.133 369.489 255.139 371.95 255.145C374.445 255.151 376.957 255.157 380.154 255.157V256.456Z" fill="#B8AAA2"/>
<path d="M360.457 303.866H353.964V306.464H360.457V303.866Z" fill="#A69185"/>
<path d="M368.574 303.866H362.081V306.464H368.574V303.866Z" fill="#A69185"/>
<path d="M132.568 146.542C134.558 144.368 134.33 140.981 136.194 138.949C142.864 145.619 144.793 148.611 148.625 154.155C145.927 157.567 141.965 159.366 142.639 159.81C138.201 155.587 135.87 151.45 132.568 146.542Z" fill="#FFC629"/>
<path d="M265.965 174.302C264.593 176.593 260.429 180.513 260.429 180.513C260.429 180.513 259.611 179.811 259.085 179.333C259.081 179.365 258.899 180.791 257.331 182.987C244.413 201.089 218.056 228.47 195.401 234.079C179.769 237.941 157.595 222.803 136.383 208.054C112.745 191.596 109.386 170.451 116.052 157.875C117.207 155.692 118.439 153.936 119.74 152.568C120.098 152.17 120.477 151.81 120.856 151.481C126.493 146.532 133.218 148.065 140.253 151.879C141.747 152.674 144.677 155.219 144.677 155.219L146.042 165.01C146.042 165.01 167.79 177.526 190.393 189.871C200.057 180.207 232.702 159.995 238.825 159.995C238.688 159.546 238.51 159.068 238.239 158.176C239.576 156.839 243.063 154.516 246.365 152.528C252.978 160.291 260.379 167.745 265.965 174.302Z" fill="#FFC629"/>
<path d="M153.339 72.1876C156.052 86.666 165.239 126.605 140.07 128.612C136.439 138.706 134.443 150.59 132.437 151.793C131.84 166.85 111.542 155.165 98.4207 147.22C102.038 136.914 107.093 129.194 109.674 121.84C105.209 114.292 110.707 114.412 106.243 106.864C102.017 101.51 104.422 88.0442 109.149 84.8083C112.639 67.9377 137.625 63.6652 153.339 72.1876Z" fill="#FFB3A3"/>
<path d="M138.298 129.263L138.468 128.323C135.481 127.787 133.171 126.917 131.602 125.736L131.028 126.499C132.718 127.771 135.163 128.701 138.298 129.263Z" fill="#85483C"/>
<path d="M152.29 109.387C152.425 109.293 152.545 109.186 152.648 109.066C153.713 107.836 152.947 105.54 151.979 102.632C151.035 99.8002 149.861 96.2771 150.051 92.7509L149.236 92.7065C149.036 96.3868 150.237 99.9932 151.203 102.891C152.054 105.446 152.79 107.653 152.031 108.53C151.518 109.121 150.194 109.232 148.096 108.855L147.951 109.66C150.071 110.041 151.472 109.955 152.29 109.387Z" fill="#85483C"/>
<path d="M133.863 91.9314C134.945 90.6839 140.417 88.4192 143.876 88.3079C142.475 85.4285 134.432 85.0604 133.863 91.9314Z" fill="#85483C"/>
<path d="M150.556 87.3123C150.798 83.1379 157.709 81.3503 159.365 86.8944C157.016 85.8041 152.703 86.0843 150.556 87.3123Z" fill="#85483C"/>
<path d="M139.474 98.3261C139.164 96.4654 140.091 94.761 141.545 94.519C142.998 94.277 144.428 95.5883 144.738 97.4483C145.048 99.3091 144.121 101.013 142.668 101.255C141.215 101.498 139.785 100.186 139.474 98.3261Z" fill="black"/>
<path d="M152.214 95.7612C151.982 94.2669 152.74 92.9082 153.907 92.7268C155.074 92.5447 156.209 93.6093 156.442 95.1036C156.675 96.5978 155.917 97.9566 154.749 98.1379C153.582 98.3192 152.447 97.2554 152.214 95.7612Z" fill="black"/>
<path d="M122.842 288.106C231.253 345.838 237.218 378.325 237.218 378.325C237.218 378.325 192.362 404.86 142.647 390.699C120.089 368.141 82.4628 350.419 60.585 337.611C58.9911 337.352 28.0772 317.875 43.6038 278.218C44.5821 250.052 101.426 277.015 122.842 288.106Z" fill="#3E2E00"/>
<path d="M151.257 222.28C150.289 249.328 139.148 272.323 126.755 290.169C110.151 296.715 47.8543 291.682 42.1996 280.045C35.1884 265.617 41.012 243.623 52.8607 209.735C62.2944 182.752 75.965 156.42 102.515 133.402C111.579 137.749 125.261 141.718 136.197 144.581C137.692 146.898 139.066 149.358 140.254 151.878C150.313 173.572 151.777 198.537 151.257 222.28Z" fill="#FFC629"/>
<path d="M154.963 76.253C152.54 83.4315 136.266 85.5522 128.877 81.97C128.856 95.0693 128.638 101.158 120.02 107.311C131.588 133.481 77.7167 134.527 96.582 100.104C83.9815 71.6093 108.501 61.6432 124.824 60.1474C126.355 60.0003 127.817 59.9365 129.164 59.9365C129.628 59.9365 130.077 59.9435 130.527 59.9505C151.676 60.4011 156.607 71.3579 154.963 76.253Z" fill="#85483C"/>
<path d="M125.801 95.7146C113.919 91.1518 108.773 108.964 121.061 111.928C131.535 114.454 138.021 101.527 125.801 95.7146Z" fill="#FFB3A3"/>
<path d="M117.251 104.322C117.331 102.443 118.109 100.9 119.443 99.9732C120.688 99.1218 122.231 98.8759 123.499 99.3086L123.808 98.4043C122.261 97.8759 120.394 98.1661 118.936 99.1615C117.339 100.221 116.392 102.078 116.297 104.28L117.251 104.322Z" fill="#85483C"/>
<path d="M86.192 198.209C119.571 310.975 166.473 283.329 233.957 254.674C232.592 241.133 229.097 233.332 228.586 224.676C194.981 224.676 177.338 230.94 156.484 236.095C147.691 212.376 140.657 197.558 125.526 175.642L86.192 198.209Z" fill="#FFC629"/>
<path d="M141.759 111.623C143.511 109.008 147.629 109.87 147.949 112.251C148.701 117.845 139.349 115.223 141.759 111.623Z" fill="white"/>
<path d="M290.705 308.899C292.018 287.391 327.357 291.167 338.761 308.899C322.703 308.899 306.288 308.899 290.705 308.899Z" fill="#5C5C5C"/>
<path d="M472.224 333.54H322.79V332.837H471.529L471.764 310.251H234.207V309.548H472.474L472.224 333.54Z" fill="black"/>
<path d="M117.451 64.4271C118.521 63.2309 120.109 62.6527 121.381 61.6737C124.919 58.8557 122.477 55.2882 118.165 56.4937C123.021 46.8942 106.131 38.8869 100.098 44.4139C86.5118 44.8474 70.3774 60.4666 80.9093 73.0951C79.5116 77.6011 81.43 85.8356 87.4434 83.6301C94.13 95.618 111.644 70.2685 117.451 64.4271Z" fill="#85483C"/>
<path d="M141.613 103.777C141.428 103.777 141.244 103.77 141.062 103.755C137.391 103.465 133.685 100.374 133.685 94.1243V93.8512L133.952 93.7913C141.637 92.0776 150.396 90.6534 158.867 89.2767L159.185 89.2253L159.269 89.5382C160.058 93.1321 159.984 97.5782 157.406 99.2771C156.345 99.9767 155.188 100.144 154.061 99.7627C152.658 99.2872 151.365 97.9439 150.699 96.2941C150.098 96.477 149.66 96.5882 149.256 96.6871C148.375 101.625 144.802 103.777 141.613 103.777ZM134.37 94.3975C134.475 100.03 137.81 102.814 141.116 103.076C144.178 103.314 147.83 101.317 148.619 96.3548L148.655 96.1299L148.876 96.0769C149.4 95.9509 149.94 95.8201 150.802 95.5477L151.118 95.4481L151.227 95.761C151.783 97.3595 152.982 98.6763 154.28 99.116C155.214 99.4319 156.139 99.2942 157.031 98.7066C159.248 97.2451 159.34 93.3111 158.669 89.9997C150.394 91.3453 141.873 92.736 134.37 94.3975Z" fill="black"/>
<path d="M133.954 93.8193L123.431 94.8213L123.678 97.4159L134.201 96.4138L133.954 93.8193Z" fill="black"/>
<path d="M141.947 121.101C137.672 121.101 131.302 120.352 126.983 116.475C124.165 113.947 122.737 110.506 122.737 106.246H123.419C123.419 110.303 124.772 113.574 127.438 115.967C133.184 121.125 142.798 120.533 145.607 120.228L145.681 120.907C144.889 120.992 143.568 121.101 141.947 121.101Z" fill="black"/>
<path d="M144.687 120.77C144.517 118.886 146.61 117.158 149.362 116.908C152.115 116.658 154.485 117.984 154.655 119.867C154.825 121.75 152.733 123.479 149.98 123.729C147.227 123.978 144.858 122.653 144.687 120.77Z" fill="black"/>
<path d="M121.573 96.6709C120.189 96.9168 118.889 97.6047 117.906 98.6024C115.603 89.7313 114.106 67.6776 124.825 60.1482C126.157 58.8158 130.213 58.5567 130.528 59.9513C119.845 68.3025 120.112 85.623 121.573 96.6709Z" fill="black"/>
<path d="M226.139 223.67C228.052 235.466 230.723 244.411 233.956 256.082C237.252 255.229 242.953 253.397 246.951 251.963C244.885 242.931 241.472 230.562 238.982 221.137C234.285 222.053 230.247 222.608 226.139 223.67Z" fill="#FFC629"/>
<path d="M232.929 253.468C229.573 245.261 227.598 234.885 225.855 225.731L225.67 224.762L226.34 224.635L226.525 225.603C228.262 234.726 230.231 245.067 233.56 253.211L232.929 253.468Z" fill="black"/>
<path d="M256.797 179.412C250.256 174.467 244.446 168.633 239.527 162.072L240.073 161.662C244.952 168.173 250.717 173.962 257.208 178.868L256.797 179.412Z" fill="black"/>
<path d="M133.741 275.864C120.742 267.036 109.399 254.017 100.937 238.216C93.2971 223.95 87.9529 208.63 82.2477 191.525L82.8944 191.309C88.5903 208.385 93.9244 223.675 101.539 237.894C109.949 253.598 121.217 266.533 134.125 275.3L133.741 275.864Z" fill="black"/>
<path d="M156.244 236.82L156.13 236.502C148.073 214.077 135.471 191.834 116.471 166.5L117.016 166.09C135.969 191.361 148.572 213.571 156.657 235.953C177.26 228.814 203.322 224.556 226.455 224.556V225.238C203.275 225.238 177.148 229.526 156.562 236.708L156.244 236.82Z" fill="black"/>
<path d="M93.1455 84.4044L92.4529 84.2885C93.0661 80.6113 94.8888 77.1684 97.5854 74.5947L98.0702 75.1029C95.4826 77.5723 93.7339 80.8759 93.1455 84.4044Z" fill="#965144"/>
<path d="M84.6861 72.9953C84.3694 68.9796 85.4433 64.9343 87.7103 61.6042C89.9781 58.2741 93.3487 55.7931 97.2009 54.6172L97.4064 55.2888C93.7067 56.4188 90.4692 58.8018 88.2917 62.0003C86.1142 65.1981 85.0822 69.0831 85.3873 72.94L84.6861 72.9953Z" fill="#965144"/>
<path d="M95.0932 62.0774L94.4862 61.7233C96.9244 57.5387 101.627 54.7394 106.469 54.5923L106.491 55.2943C101.886 55.4343 97.4116 58.0967 95.0932 62.0774Z" fill="#965144"/>
<path d="M136.715 80.9989C134.565 80.9989 132.414 80.5179 130.475 79.5716L130.783 78.9404C133.866 80.4455 137.51 80.7117 140.779 79.672C144.048 78.6322 146.869 76.31 148.515 73.3005L149.132 73.6383C147.399 76.8042 144.431 79.2478 140.991 80.3412C139.609 80.781 138.162 80.9989 136.715 80.9989Z" fill="#965144"/>
<path d="M151.491 223.175H150.81C150.81 208.484 148.82 182.729 145.607 166.735L146.276 166.6C149.497 182.635 151.491 208.452 151.491 223.175Z" fill="black"/>
<path d="M129.312 161.904L129.041 161.738C119.021 155.596 108.421 149.89 97.5369 144.778L97.8271 144.16C108.636 149.237 119.164 154.898 129.125 160.989C132.368 156.351 134.121 151.986 136.228 146.361L136.414 145.865L136.788 146.239C139.215 148.666 142.022 152.42 144.491 156.539L143.906 156.889C141.591 153.026 138.98 149.493 136.678 147.101C134.597 152.639 132.807 156.98 129.498 161.644L129.312 161.904Z" fill="black"/>
<path d="M158.26 189.982C148.726 179.266 137.952 166.35 130.327 151.797C122.232 136.345 118.587 120.539 119.785 106.089L120.465 106.145C119.277 120.466 122.896 136.143 130.931 151.48C138.521 165.967 149.263 178.843 158.769 189.528L158.26 189.982Z" fill="black"/>
<path d="M159.093 189.081L158.412 189.046C159.416 168.003 154.493 146.364 144.505 127.779C144.73 127.709 144.947 127.632 145.158 127.554C155.166 146.223 160.104 167.947 159.093 189.081Z" fill="black"/>
<path d="M167.681 232.994L166.999 232.99C167.079 219.525 164.234 204.806 158.986 191.542L159.62 191.291C164.898 204.635 167.761 219.445 167.681 232.994Z" fill="black"/>
<path d="M157.005 191.39C156.305 190.004 156.58 188.456 157.619 187.932C158.658 187.407 160.067 188.105 160.766 189.49C161.466 190.875 161.191 192.423 160.152 192.948C159.114 193.472 157.705 192.775 157.005 191.39Z" fill="black"/>
<path d="M120.703 108.49C124.824 108.49 128.165 105.188 128.165 101.115C128.165 97.0424 124.824 93.7407 120.703 93.7407C116.581 93.7407 113.24 97.0424 113.24 101.115C113.24 105.188 116.581 108.49 120.703 108.49Z" fill="#FFE0F3"/>
<path d="M115.702 101.116C115.702 98.3863 117.94 96.1746 120.701 96.1746C123.462 96.1746 125.701 98.3863 125.701 101.116C125.701 103.844 123.463 106.057 120.701 106.057C117.941 106.057 115.702 103.844 115.702 101.116Z" fill="#FFC629"/>
<path d="M264.841 159.497L264.21 158.773C266.299 156.952 267.825 154.47 268.508 151.784L268.571 151.533L268.816 151.448C272.926 150.03 276.641 147.154 279.01 143.559C279.523 142.781 280.287 141.326 279.634 140.331C279.319 139.85 278.688 139.545 277.944 139.513C277.214 139.482 276.461 139.691 275.734 139.895L263.91 143.203L263.652 142.279L275.476 138.97C276.238 138.757 277.102 138.516 277.986 138.553C279.038 138.598 279.955 139.066 280.439 139.805C281.155 140.898 280.939 142.379 279.813 144.088C277.376 147.785 273.582 150.756 269.374 152.27C268.613 155.047 267.01 157.605 264.841 159.497Z" fill="#85483C"/>
<path d="M283.259 148.377L283.108 147.433C287.486 146.302 291.742 145.129 295.663 143.213C296.827 142.644 297.721 142.097 298.297 141.276C298.824 140.525 299.042 139.321 298.406 138.567C297.769 137.811 296.531 137.691 294.619 138.198C293.07 138.61 291.526 139.065 289.995 139.564C288.686 140.071 287.372 140.54 286.075 141.003C285.444 141.228 284.817 141.452 284.194 141.679L283.85 140.782C285.757 140.009 287.703 139.3 289.67 138.659C291.646 137.893 293.602 137.042 295.45 135.999C296.182 135.586 297.006 135.083 297.529 134.349C297.95 133.756 298.199 132.845 297.805 132.146C297.27 131.198 295.865 131.06 294.782 131.111C293.031 131.193 291.308 131.539 289.627 132.043C288.261 132.762 286.809 133.306 285.394 133.836C284.436 134.195 283.457 134.561 282.505 134.983C281.913 135.273 281.331 135.564 280.759 135.85L280.309 135.001C280.894 134.672 281.495 134.38 282.102 134.11C284.362 133.003 286.762 131.907 289.27 131.147C289.605 130.968 289.933 130.777 290.255 130.572C291.328 129.888 292.075 129.176 292.539 128.396C293.095 127.462 293.23 126.397 292.898 125.548C292.546 124.645 291.601 124.039 290.749 124.17L290.602 123.221C291.904 123.018 293.275 123.872 293.792 125.2C294.23 126.323 294.07 127.701 293.364 128.888C293.03 129.449 292.58 129.975 292.002 130.475C292.902 130.308 293.814 130.196 294.736 130.153C296.674 130.062 298.027 130.588 298.641 131.676C299.169 132.613 299.04 133.882 298.311 134.907C297.704 135.76 296.804 136.339 295.922 136.837C295.823 136.893 295.723 136.949 295.624 137.003C296.747 136.842 298.23 136.871 299.14 137.949C300.095 139.082 299.835 140.76 299.083 141.83C298.348 142.877 297.207 143.529 296.085 144.078C293.505 145.339 290.799 146.28 288.015 147.097C288.538 147.032 289.061 146.947 289.588 146.833C291.742 146.367 294.226 146.038 296.317 147.136L295.87 147.987C294.051 147.031 291.777 147.342 289.792 147.772C288.144 148.129 286.579 148.207 284.922 148.289C284.385 148.312 283.833 148.339 283.259 148.377Z" fill="#85483C"/>
<path d="M269.902 231.237L269.263 230.52C271.516 228.518 274.046 226.07 275.731 223.086C277.498 219.957 278.065 216.647 277.329 213.766C276.717 211.369 275.1 207.421 271.156 207.906L271.039 206.952C274.449 206.529 277.083 208.928 278.26 213.528C279.058 216.65 278.458 220.213 276.568 223.558C274.814 226.665 272.214 229.183 269.902 231.237Z" fill="#85483C"/>
<path d="M275.916 235.806L275.244 235.12C278.356 232.069 281.575 228.914 283.555 224.969C285.7 220.693 285.833 215.966 283.899 212.631C283.325 211.642 282.685 211.079 281.997 210.957C281.164 210.807 280.365 211.328 279.895 211.864C279.277 212.569 278.682 214.072 278.428 214.713L277.535 214.359C277.986 213.222 278.533 211.962 279.173 211.231C279.993 210.295 281.139 209.828 282.166 210.011C283.145 210.185 284.008 210.904 284.73 212.148C286.824 215.76 286.703 220.837 284.413 225.399C282.362 229.488 279.084 232.7 275.916 235.806Z" fill="#85483C"/>
<path d="M273.809 243.849L273.662 242.9C276.569 242.45 279.539 241.104 282.49 238.901C285.143 236.919 287.49 234.484 289.759 232.129C290.772 231.077 291.921 229.885 292.45 228.461C292.898 227.255 292.867 225.532 291.742 224.599L292.355 223.86C293.84 225.092 293.912 227.282 293.349 228.796C292.751 230.407 291.529 231.676 290.45 232.796C288.154 235.178 285.781 237.642 283.065 239.67C279.986 241.968 276.872 243.375 273.809 243.849Z" fill="#85483C"/>
</g>
<g filter="url(#filter0_d_1545_11256)">
<path d="M61.0706 46H23.001C21.3436 46 20 47.3436 20 49.001V74.227C20 75.8844 21.3436 77.228 23.001 77.228H43.0489L52.5783 86.7573V77.228H61.0706C62.2994 77.228 63.2959 76.2315 63.2959 75.0027V48.2253C63.2959 46.9965 62.2994 46 61.0706 46Z" fill="#FFFCF4"/>
<path d="M48.7207 62.2402C48.7207 63.4774 49.7238 64.4805 50.9609 64.4805C52.1981 64.4805 53.2012 63.4774 53.2012 62.2402C53.2012 61.0031 52.1981 60 50.9609 60C49.7238 60 48.7207 61.0031 48.7207 62.2402Z" fill="#263238"/>
<path d="M39.8603 62.2402C39.8603 63.4774 40.8635 64.4805 42.1006 64.4805C43.3377 64.4805 44.3408 63.4774 44.3408 62.2402C44.3408 61.0031 43.3377 60 42.1006 60C40.8635 60 39.8603 61.0031 39.8603 62.2402Z" fill="#263238"/>
<path d="M31 62.2402C31 63.4774 32.0031 64.4805 33.2402 64.4805C34.4773 64.4805 35.4805 63.4774 35.4805 62.2402C35.4805 61.0031 34.4773 60 33.2402 60C32.0031 60 31 61.0031 31 62.2402Z" fill="#263238"/>
</g>
<g filter="url(#filter1_d_1545_11256)">
<path d="M280 176C280 167.716 286.716 161 295 161H404C412.284 161 419 167.716 419 176V184C419 192.284 412.284 199 404 199H280V176Z" fill="#263238" shape-rendering="crispEdges"/>
<path d="M298.124 183.5V182.478H300.91C301.619 182.478 302.221 182.319 302.716 182.002C303.22 181.675 303.603 181.223 303.864 180.644C304.135 180.065 304.27 179.384 304.27 178.6C304.27 177.807 304.135 177.121 303.864 176.542C303.603 175.963 303.22 175.515 302.716 175.198C302.221 174.881 301.619 174.722 300.91 174.722H298.124V173.7H300.91C301.834 173.7 302.627 173.905 303.29 174.316C303.953 174.727 304.461 175.301 304.816 176.038C305.171 176.766 305.348 177.62 305.348 178.6C305.348 179.58 305.171 180.439 304.816 181.176C304.461 181.904 303.953 182.473 303.29 182.884C302.627 183.295 301.834 183.5 300.91 183.5H298.124ZM297.62 183.5V173.7H298.67V183.5H297.62ZM309.18 183.668C308.704 183.668 308.275 183.575 307.892 183.388C307.519 183.201 307.225 182.945 307.01 182.618C306.796 182.291 306.688 181.913 306.688 181.484C306.688 180.877 306.903 180.387 307.332 180.014C307.771 179.631 308.373 179.412 309.138 179.356L311.826 179.16V180.14L309.376 180.322C308.835 180.359 308.429 180.476 308.158 180.672C307.897 180.868 307.766 181.139 307.766 181.484C307.766 181.82 307.902 182.1 308.172 182.324C308.452 182.539 308.812 182.646 309.25 182.646C309.689 182.646 310.086 182.548 310.44 182.352C310.804 182.147 311.089 181.876 311.294 181.54C311.509 181.195 311.616 180.812 311.616 180.392V179.258C311.616 178.698 311.444 178.241 311.098 177.886C310.762 177.522 310.305 177.34 309.726 177.34C309.288 177.34 308.91 177.447 308.592 177.662C308.275 177.867 308.051 178.171 307.92 178.572H307.766L306.842 178.236C307.066 177.611 307.43 177.135 307.934 176.808C308.438 176.481 309.04 176.318 309.74 176.318C310.683 176.318 311.406 176.603 311.91 177.172C312.414 177.732 312.666 178.53 312.666 179.566V183.5H311.644V181.47L312.008 181.736C311.896 182.109 311.7 182.445 311.42 182.744C311.14 183.033 310.809 183.262 310.426 183.43C310.044 183.589 309.628 183.668 309.18 183.668ZM314.556 183.5V176.5H315.606V183.5H314.556ZM315.088 175.128C314.874 175.128 314.692 175.053 314.542 174.904C314.393 174.755 314.318 174.573 314.318 174.358C314.318 174.143 314.393 173.961 314.542 173.812C314.692 173.663 314.874 173.588 315.088 173.588C315.303 173.588 315.485 173.663 315.634 173.812C315.784 173.961 315.858 174.143 315.858 174.358C315.858 174.573 315.784 174.755 315.634 174.904C315.485 175.053 315.303 175.128 315.088 175.128ZM317.771 183.5V173.42L318.779 173.294L318.821 173.406V183.5H317.771ZM321.699 186.3V186.188L322.833 183.5L323.197 182.73L325.731 176.5H326.823V176.612L322.763 186.3H321.699ZM322.847 183.5L320.005 176.612V176.5H321.097L323.491 182.436V183.5H322.847ZM333.477 183.668C332.861 183.668 332.301 183.509 331.797 183.192C331.303 182.875 330.906 182.441 330.607 181.89C330.318 181.339 330.173 180.709 330.173 180C330.173 179.291 330.318 178.661 330.607 178.11C330.906 177.559 331.303 177.125 331.797 176.808C332.301 176.491 332.861 176.332 333.477 176.332C333.953 176.332 334.392 176.43 334.793 176.626C335.195 176.813 335.54 177.079 335.829 177.424C336.119 177.76 336.333 178.161 336.473 178.628V181.372C336.333 181.829 336.119 182.231 335.829 182.576C335.54 182.921 335.195 183.192 334.793 183.388C334.392 183.575 333.953 183.668 333.477 183.668ZM333.519 182.646C333.986 182.646 334.397 182.534 334.751 182.31C335.115 182.086 335.4 181.778 335.605 181.386C335.82 180.985 335.927 180.523 335.927 180C335.927 179.477 335.82 179.02 335.605 178.628C335.4 178.227 335.115 177.914 334.751 177.69C334.397 177.466 333.986 177.354 333.519 177.354C333.081 177.354 332.684 177.466 332.329 177.69C331.984 177.914 331.713 178.227 331.517 178.628C331.321 179.02 331.223 179.477 331.223 180C331.223 180.523 331.321 180.985 331.517 181.386C331.713 181.778 331.984 182.086 332.329 182.31C332.684 182.534 333.081 182.646 333.519 182.646ZM335.955 183.5V180.882L336.123 180L335.927 179.118V173.42L336.935 173.294L336.977 173.406V183.5H335.955ZM339.001 183.5V176.5H340.051V183.5H339.001ZM339.533 175.128C339.319 175.128 339.137 175.053 338.987 174.904C338.838 174.755 338.763 174.573 338.763 174.358C338.763 174.143 338.838 173.961 338.987 173.812C339.137 173.663 339.319 173.588 339.533 173.588C339.748 173.588 339.93 173.663 340.079 173.812C340.229 173.961 340.303 174.143 340.303 174.358C340.303 174.573 340.229 174.755 340.079 174.904C339.93 175.053 339.748 175.128 339.533 175.128ZM344.169 186.3C343.263 186.3 342.559 186.113 342.055 185.74C341.56 185.367 341.313 184.863 341.313 184.228C341.313 183.836 341.406 183.486 341.593 183.178C341.789 182.87 342.073 182.632 342.447 182.464L342.993 183.038C342.787 183.131 342.624 183.271 342.503 183.458C342.391 183.635 342.335 183.831 342.335 184.046C342.335 184.419 342.489 184.723 342.797 184.956C343.114 185.199 343.543 185.32 344.085 185.32H345.051C345.611 185.32 346.054 185.222 346.381 185.026C346.707 184.83 346.871 184.545 346.871 184.172C346.871 183.901 346.763 183.687 346.549 183.528C346.343 183.369 346.035 183.29 345.625 183.29H343.679C343.315 183.29 342.983 183.225 342.685 183.094C342.395 182.963 342.162 182.781 341.985 182.548C341.817 182.315 341.733 182.039 341.733 181.722C341.733 181.423 341.817 181.148 341.985 180.896C342.162 180.635 342.447 180.434 342.839 180.294L343.413 180.84C343.161 180.896 342.983 180.994 342.881 181.134C342.778 181.274 342.727 181.433 342.727 181.61C342.727 181.843 342.815 182.025 342.993 182.156C343.179 182.277 343.427 182.338 343.735 182.338H345.625C346.315 182.338 346.861 182.511 347.263 182.856C347.673 183.192 347.879 183.635 347.879 184.186C347.879 184.839 347.622 185.353 347.109 185.726C346.595 186.109 345.909 186.3 345.051 186.3H344.169ZM344.645 181.316C344.103 181.316 343.623 181.213 343.203 181.008C342.792 180.793 342.47 180.499 342.237 180.126C342.003 179.743 341.887 179.309 341.887 178.824C341.887 178.329 342.003 177.895 342.237 177.522C342.47 177.149 342.792 176.859 343.203 176.654C343.623 176.439 344.103 176.332 344.645 176.332C345.195 176.332 345.676 176.439 346.087 176.654C346.497 176.859 346.819 177.149 347.053 177.522C347.286 177.895 347.403 178.329 347.403 178.824C347.403 179.309 347.286 179.743 347.053 180.126C346.819 180.499 346.497 180.793 346.087 181.008C345.676 181.213 345.195 181.316 344.645 181.316ZM344.645 180.364C345.167 180.364 345.587 180.224 345.905 179.944C346.231 179.655 346.395 179.281 346.395 178.824C346.395 178.367 346.231 177.998 345.905 177.718C345.587 177.429 345.167 177.284 344.645 177.284C344.122 177.284 343.697 177.429 343.371 177.718C343.053 177.998 342.895 178.367 342.895 178.824C342.895 179.281 343.053 179.655 343.371 179.944C343.697 180.224 344.122 180.364 344.645 180.364ZM346.521 177.34L345.821 176.85C345.821 176.495 345.895 176.183 346.045 175.912C346.194 175.632 346.39 175.413 346.633 175.254C346.885 175.095 347.165 175.016 347.473 175.016C347.538 175.016 347.613 175.021 347.697 175.03C347.781 175.03 347.846 175.039 347.893 175.058V176.038L347.823 176.192C347.729 176.164 347.622 176.15 347.501 176.15C347.174 176.15 346.927 176.262 346.759 176.486C346.6 176.701 346.521 176.985 346.521 177.34ZM349.146 183.5V176.5H350.196V183.5H349.146ZM349.678 175.128C349.463 175.128 349.281 175.053 349.132 174.904C348.983 174.755 348.908 174.573 348.908 174.358C348.908 174.143 348.983 173.961 349.132 173.812C349.281 173.663 349.463 173.588 349.678 173.588C349.893 173.588 350.075 173.663 350.224 173.812C350.373 173.961 350.448 174.143 350.448 174.358C350.448 174.573 350.373 174.755 350.224 174.904C350.075 175.053 349.893 175.128 349.678 175.128ZM354.224 183.5C353.645 183.5 353.169 183.313 352.796 182.94C352.422 182.567 352.236 182.063 352.236 181.428V174.596H353.286V181.358C353.286 181.769 353.37 182.058 353.538 182.226C353.715 182.394 354.004 182.478 354.406 182.478H355.274L355.344 182.632V183.5H354.224ZM351.032 177.522V176.5H355.344V177.522H351.032ZM358.891 183.668C358.415 183.668 357.986 183.575 357.603 183.388C357.23 183.201 356.936 182.945 356.721 182.618C356.507 182.291 356.399 181.913 356.399 181.484C356.399 180.877 356.614 180.387 357.043 180.014C357.482 179.631 358.084 179.412 358.849 179.356L361.537 179.16V180.14L359.087 180.322C358.546 180.359 358.14 180.476 357.869 180.672C357.608 180.868 357.477 181.139 357.477 181.484C357.477 181.82 357.613 182.1 357.883 182.324C358.163 182.539 358.523 182.646 358.961 182.646C359.4 182.646 359.797 182.548 360.151 182.352C360.515 182.147 360.8 181.876 361.005 181.54C361.22 181.195 361.327 180.812 361.327 180.392V179.258C361.327 178.698 361.155 178.241 360.809 177.886C360.473 177.522 360.016 177.34 359.437 177.34C358.999 177.34 358.621 177.447 358.303 177.662C357.986 177.867 357.762 178.171 357.631 178.572H357.477L356.553 178.236C356.777 177.611 357.141 177.135 357.645 176.808C358.149 176.481 358.751 176.318 359.451 176.318C360.394 176.318 361.117 176.603 361.621 177.172C362.125 177.732 362.377 178.53 362.377 179.566V183.5H361.355V181.47L361.719 181.736C361.607 182.109 361.411 182.445 361.131 182.744C360.851 183.033 360.52 183.262 360.137 183.43C359.755 183.589 359.339 183.668 358.891 183.668ZM364.474 183.5V173.42L365.482 173.294L365.524 173.406V183.5H364.474ZM373.187 183.5C372.608 183.5 372.132 183.313 371.759 182.94C371.385 182.567 371.199 182.063 371.199 181.428V174.596H372.249V181.358C372.249 181.769 372.333 182.058 372.501 182.226C372.678 182.394 372.967 182.478 373.369 182.478H374.237L374.307 182.632V183.5H373.187ZM369.995 177.522V176.5H374.307V177.522H369.995ZM377.854 183.668C377.378 183.668 376.949 183.575 376.566 183.388C376.193 183.201 375.899 182.945 375.684 182.618C375.469 182.291 375.362 181.913 375.362 181.484C375.362 180.877 375.577 180.387 376.006 180.014C376.445 179.631 377.047 179.412 377.812 179.356L380.5 179.16V180.14L378.05 180.322C377.509 180.359 377.103 180.476 376.832 180.672C376.571 180.868 376.44 181.139 376.44 181.484C376.44 181.82 376.575 182.1 376.846 182.324C377.126 182.539 377.485 182.646 377.924 182.646C378.363 182.646 378.759 182.548 379.114 182.352C379.478 182.147 379.763 181.876 379.968 181.54C380.183 181.195 380.29 180.812 380.29 180.392V179.258C380.29 178.698 380.117 178.241 379.772 177.886C379.436 177.522 378.979 177.34 378.4 177.34C377.961 177.34 377.583 177.447 377.266 177.662C376.949 177.867 376.725 178.171 376.594 178.572H376.44L375.516 178.236C375.74 177.611 376.104 177.135 376.608 176.808C377.112 176.481 377.714 176.318 378.414 176.318C379.357 176.318 380.08 176.603 380.584 177.172C381.088 177.732 381.34 178.53 381.34 179.566V183.5H380.318V181.47L380.682 181.736C380.57 182.109 380.374 182.445 380.094 182.744C379.814 183.033 379.483 183.262 379.1 183.43C378.717 183.589 378.302 183.668 377.854 183.668ZM385.47 183.668C384.751 183.668 384.145 183.495 383.65 183.15C383.155 182.795 382.829 182.301 382.67 181.666L383.636 181.428L383.79 181.456C383.893 181.829 384.107 182.123 384.434 182.338C384.761 182.543 385.143 182.646 385.582 182.646C386.021 182.646 386.394 182.548 386.702 182.352C387.019 182.147 387.178 181.881 387.178 181.554C387.178 181.283 387.085 181.069 386.898 180.91C386.721 180.742 386.45 180.616 386.086 180.532L384.798 180.238C384.145 180.089 383.664 179.851 383.356 179.524C383.057 179.188 382.908 178.791 382.908 178.334C382.908 177.942 383.015 177.597 383.23 177.298C383.445 176.999 383.739 176.766 384.112 176.598C384.495 176.421 384.929 176.332 385.414 176.332C386.123 176.332 386.721 176.509 387.206 176.864C387.691 177.219 388.013 177.718 388.172 178.362L387.192 178.572L387.038 178.544C386.945 178.161 386.739 177.867 386.422 177.662C386.114 177.457 385.769 177.354 385.386 177.354C384.985 177.354 384.649 177.443 384.378 177.62C384.117 177.797 383.986 178.021 383.986 178.292C383.986 178.525 384.07 178.721 384.238 178.88C384.415 179.029 384.695 179.146 385.078 179.23L386.38 179.524C387.024 179.673 387.495 179.911 387.794 180.238C388.102 180.565 388.256 180.98 388.256 181.484C388.256 181.932 388.135 182.319 387.892 182.646C387.649 182.973 387.318 183.225 386.898 183.402C386.487 183.579 386.011 183.668 385.47 183.668ZM390.2 182.058V180.672L394.512 176.5H395.758V176.612L390.2 182.058ZM389.78 183.5V173.42L390.788 173.294L390.83 173.406V183.5H389.78ZM394.596 183.5L392.006 179.846L392.692 179.146L395.758 183.388V183.5H394.596ZM398.978 183.668C398.259 183.668 397.652 183.495 397.158 183.15C396.663 182.795 396.336 182.301 396.178 181.666L397.144 181.428L397.298 181.456C397.4 181.829 397.615 182.123 397.942 182.338C398.268 182.543 398.651 182.646 399.09 182.646C399.528 182.646 399.902 182.548 400.21 182.352C400.527 182.147 400.686 181.881 400.686 181.554C400.686 181.283 400.592 181.069 400.406 180.91C400.228 180.742 399.958 180.616 399.594 180.532L398.306 180.238C397.652 180.089 397.172 179.851 396.864 179.524C396.565 179.188 396.416 178.791 396.416 178.334C396.416 177.942 396.523 177.597 396.738 177.298C396.952 176.999 397.246 176.766 397.62 176.598C398.002 176.421 398.436 176.332 398.922 176.332C399.631 176.332 400.228 176.509 400.714 176.864C401.199 177.219 401.521 177.718 401.68 178.362L400.7 178.572L400.546 178.544C400.452 178.161 400.247 177.867 399.93 177.662C399.622 177.457 399.276 177.354 398.894 177.354C398.492 177.354 398.156 177.443 397.886 177.62C397.624 177.797 397.494 178.021 397.494 178.292C397.494 178.525 397.578 178.721 397.746 178.88C397.923 179.029 398.203 179.146 398.586 179.23L399.888 179.524C400.532 179.673 401.003 179.911 401.302 180.238C401.61 180.565 401.764 180.98 401.764 181.484C401.764 181.932 401.642 182.319 401.4 182.646C401.157 182.973 400.826 183.225 400.406 183.402C399.995 183.579 399.519 183.668 398.978 183.668Z" fill="#F0F0F0"/>
</g>
<g filter="url(#filter2_d_1545_11256)">
<path d="M188 94C188 85.7157 194.716 79 203 79H352C360.284 79 367 85.7157 367 94V102C367 110.284 360.284 117 352 117H188V94Z" fill="#263238" shape-rendering="crispEdges"/>
<path d="M202.846 101.5V97.678L199.64 91.812V91.7H200.816L203.672 97.118H203.112L205.954 91.7H207.102V91.812L203.896 97.678V101.5H202.846ZM209.984 101.668C209.312 101.668 208.715 101.514 208.192 101.206C207.679 100.898 207.273 100.469 206.974 99.918C206.685 99.3673 206.54 98.728 206.54 98C206.54 97.272 206.685 96.6327 206.974 96.082C207.273 95.5313 207.679 95.102 208.192 94.794C208.715 94.486 209.312 94.332 209.984 94.332C210.666 94.332 211.263 94.486 211.776 94.794C212.29 95.102 212.691 95.5313 212.98 96.082C213.279 96.6327 213.428 97.272 213.428 98C213.428 98.728 213.279 99.3673 212.98 99.918C212.691 100.469 212.29 100.898 211.776 101.206C211.263 101.514 210.666 101.668 209.984 101.668ZM209.984 100.646C210.451 100.646 210.862 100.539 211.216 100.324C211.58 100.1 211.865 99.792 212.07 99.4C212.276 98.9987 212.378 98.532 212.378 98C212.378 97.4587 212.276 96.992 212.07 96.6C211.865 96.208 211.58 95.9047 211.216 95.69C210.862 95.466 210.451 95.354 209.984 95.354C209.518 95.354 209.102 95.466 208.738 95.69C208.384 95.9047 208.104 96.208 207.898 96.6C207.693 96.992 207.59 97.4587 207.59 98C207.59 98.532 207.693 98.9987 207.898 99.4C208.104 99.792 208.384 100.1 208.738 100.324C209.102 100.539 209.518 100.646 209.984 100.646ZM221.006 94.5V101.5H219.984V99.47L220.292 99.736C220.171 100.128 219.97 100.469 219.69 100.758C219.42 101.047 219.093 101.271 218.71 101.43C218.328 101.589 217.922 101.668 217.492 101.668C216.988 101.668 216.54 101.561 216.148 101.346C215.766 101.131 215.462 100.814 215.238 100.394C215.014 99.974 214.902 99.4513 214.902 98.826V94.5H215.952V98.588C215.952 99.1107 216.032 99.5213 216.19 99.82C216.349 100.119 216.564 100.329 216.834 100.45C217.105 100.571 217.404 100.632 217.73 100.632C218.122 100.632 218.486 100.539 218.822 100.352C219.158 100.165 219.429 99.8947 219.634 99.54C219.849 99.1853 219.956 98.7653 219.956 98.28V94.5H221.006ZM226.046 101.5V94.5H227.068V96.53L226.76 96.264C226.882 95.872 227.082 95.5313 227.362 95.242C227.642 94.9527 227.969 94.7287 228.342 94.57C228.725 94.4113 229.131 94.332 229.56 94.332C230.064 94.332 230.512 94.4393 230.904 94.654C231.296 94.8687 231.6 95.186 231.814 95.606C232.038 96.026 232.15 96.5487 232.15 97.174V101.5H231.1V97.412C231.1 96.88 231.021 96.4693 230.862 96.18C230.704 95.8813 230.489 95.6713 230.218 95.55C229.957 95.4287 229.658 95.368 229.322 95.368C228.94 95.368 228.576 95.4613 228.23 95.648C227.894 95.8347 227.619 96.1053 227.404 96.46C227.199 96.8053 227.096 97.2253 227.096 97.72V101.5H226.046ZM237.026 101.668C236.364 101.668 235.776 101.514 235.262 101.206C234.749 100.898 234.348 100.469 234.058 99.918C233.769 99.3673 233.624 98.728 233.624 98C233.624 97.272 233.764 96.6327 234.044 96.082C234.334 95.5313 234.73 95.102 235.234 94.794C235.748 94.486 236.336 94.332 236.998 94.332C237.652 94.332 238.221 94.4907 238.706 94.808C239.201 95.116 239.588 95.5547 239.868 96.124C240.148 96.684 240.288 97.3373 240.288 98.084V98.21L240.078 98.406H234.24V97.384H239.672L239.21 97.58C239.173 97.1133 239.052 96.7167 238.846 96.39C238.641 96.054 238.38 95.7973 238.062 95.62C237.745 95.4427 237.39 95.354 236.998 95.354C236.569 95.354 236.177 95.4613 235.822 95.676C235.468 95.8813 235.188 96.1753 234.982 96.558C234.777 96.9407 234.674 97.384 234.674 97.888V98.07C234.674 98.574 234.772 99.022 234.968 99.414C235.174 99.7967 235.454 100.1 235.808 100.324C236.163 100.539 236.569 100.646 237.026 100.646C237.484 100.646 237.876 100.539 238.202 100.324C238.529 100.109 238.786 99.8153 238.972 99.442H239.126L240.008 99.834C239.747 100.394 239.355 100.842 238.832 101.178C238.319 101.505 237.717 101.668 237.026 101.668ZM244.806 101.668C244.143 101.668 243.555 101.514 243.042 101.206C242.528 100.898 242.127 100.469 241.838 99.918C241.548 99.3673 241.404 98.728 241.404 98C241.404 97.272 241.544 96.6327 241.824 96.082C242.113 95.5313 242.51 95.102 243.014 94.794C243.527 94.486 244.115 94.332 244.778 94.332C245.431 94.332 246 94.4907 246.486 94.808C246.98 95.116 247.368 95.5547 247.648 96.124C247.928 96.684 248.068 97.3373 248.068 98.084V98.21L247.858 98.406H242.02V97.384H247.452L246.99 97.58C246.952 97.1133 246.831 96.7167 246.626 96.39C246.42 96.054 246.159 95.7973 245.842 95.62C245.524 95.4427 245.17 95.354 244.778 95.354C244.348 95.354 243.956 95.4613 243.602 95.676C243.247 95.8813 242.967 96.1753 242.762 96.558C242.556 96.9407 242.454 97.384 242.454 97.888V98.07C242.454 98.574 242.552 99.022 242.748 99.414C242.953 99.7967 243.233 100.1 243.588 100.324C243.942 100.539 244.348 100.646 244.806 100.646C245.263 100.646 245.655 100.539 245.982 100.324C246.308 100.109 246.565 99.8153 246.752 99.442H246.906L247.788 99.834C247.526 100.394 247.134 100.842 246.612 101.178C246.098 101.505 245.496 101.668 244.806 101.668ZM252.487 101.668C251.871 101.668 251.311 101.509 250.807 101.192C250.312 100.875 249.916 100.441 249.617 99.89C249.328 99.3393 249.183 98.7093 249.183 98C249.183 97.2907 249.328 96.6607 249.617 96.11C249.916 95.5593 250.312 95.1253 250.807 94.808C251.311 94.4907 251.871 94.332 252.487 94.332C252.963 94.332 253.402 94.43 253.803 94.626C254.204 94.8127 254.55 95.0787 254.839 95.424C255.128 95.76 255.343 96.1613 255.483 96.628V99.372C255.343 99.8293 255.128 100.231 254.839 100.576C254.55 100.921 254.204 101.192 253.803 101.388C253.402 101.575 252.963 101.668 252.487 101.668ZM252.529 100.646C252.996 100.646 253.406 100.534 253.761 100.31C254.125 100.086 254.41 99.778 254.615 99.386C254.83 98.9847 254.937 98.5227 254.937 98C254.937 97.4773 254.83 97.02 254.615 96.628C254.41 96.2267 254.125 95.914 253.761 95.69C253.406 95.466 252.996 95.354 252.529 95.354C252.09 95.354 251.694 95.466 251.339 95.69C250.994 95.914 250.723 96.2267 250.527 96.628C250.331 97.02 250.233 97.4773 250.233 98C250.233 98.5227 250.331 98.9847 250.527 99.386C250.723 99.778 250.994 100.086 251.339 100.31C251.694 100.534 252.09 100.646 252.529 100.646ZM254.965 101.5V98.882L255.133 98L254.937 97.118V91.42L255.945 91.294L255.987 91.406V101.5H254.965ZM263.649 101.5C263.071 101.5 262.595 101.313 262.221 100.94C261.848 100.567 261.661 100.063 261.661 99.428V92.596H262.711V99.358C262.711 99.7687 262.795 100.058 262.963 100.226C263.141 100.394 263.43 100.478 263.831 100.478H264.699L264.769 100.632V101.5H263.649ZM260.457 95.522V94.5H264.769V95.522H260.457ZM269.129 101.668C268.457 101.668 267.86 101.514 267.337 101.206C266.824 100.898 266.418 100.469 266.119 99.918C265.83 99.3673 265.685 98.728 265.685 98C265.685 97.272 265.83 96.6327 266.119 96.082C266.418 95.5313 266.824 95.102 267.337 94.794C267.86 94.486 268.457 94.332 269.129 94.332C269.81 94.332 270.408 94.486 270.921 94.794C271.434 95.102 271.836 95.5313 272.125 96.082C272.424 96.6327 272.573 97.272 272.573 98C272.573 98.728 272.424 99.3673 272.125 99.918C271.836 100.469 271.434 100.898 270.921 101.206C270.408 101.514 269.81 101.668 269.129 101.668ZM269.129 100.646C269.596 100.646 270.006 100.539 270.361 100.324C270.725 100.1 271.01 99.792 271.215 99.4C271.42 98.9987 271.523 98.532 271.523 98C271.523 97.4587 271.42 96.992 271.215 96.6C271.01 96.208 270.725 95.9047 270.361 95.69C270.006 95.466 269.596 95.354 269.129 95.354C268.662 95.354 268.247 95.466 267.883 95.69C267.528 95.9047 267.248 96.208 267.043 96.6C266.838 96.992 266.735 97.4587 266.735 98C266.735 98.532 266.838 98.9987 267.043 99.4C267.248 99.792 267.528 100.1 267.883 100.324C268.247 100.539 268.662 100.646 269.129 100.646ZM279.433 101.668C278.714 101.668 278.108 101.495 277.613 101.15C277.118 100.795 276.792 100.301 276.633 99.666L277.599 99.428L277.753 99.456C277.856 99.8293 278.07 100.123 278.397 100.338C278.724 100.543 279.106 100.646 279.545 100.646C279.984 100.646 280.357 100.548 280.665 100.352C280.982 100.147 281.141 99.8807 281.141 99.554C281.141 99.2833 281.048 99.0687 280.861 98.91C280.684 98.742 280.413 98.616 280.049 98.532L278.761 98.238C278.108 98.0887 277.627 97.8507 277.319 97.524C277.02 97.188 276.871 96.7913 276.871 96.334C276.871 95.942 276.978 95.5967 277.193 95.298C277.408 94.9993 277.702 94.766 278.075 94.598C278.458 94.4207 278.892 94.332 279.377 94.332C280.086 94.332 280.684 94.5093 281.169 94.864C281.654 95.2187 281.976 95.718 282.135 96.362L281.155 96.572L281.001 96.544C280.908 96.1613 280.702 95.8673 280.385 95.662C280.077 95.4567 279.732 95.354 279.349 95.354C278.948 95.354 278.612 95.4427 278.341 95.62C278.08 95.7973 277.949 96.0213 277.949 96.292C277.949 96.5253 278.033 96.7213 278.201 96.88C278.378 97.0293 278.658 97.146 279.041 97.23L280.343 97.524C280.987 97.6733 281.458 97.9113 281.757 98.238C282.065 98.5647 282.219 98.98 282.219 99.484C282.219 99.932 282.098 100.319 281.855 100.646C281.612 100.973 281.281 101.225 280.861 101.402C280.45 101.579 279.974 101.668 279.433 101.668ZM283.743 101.5V91.42L284.751 91.294L284.793 91.406V96.53L284.457 96.264C284.579 95.872 284.779 95.5313 285.059 95.242C285.339 94.9527 285.666 94.7287 286.039 94.57C286.422 94.4113 286.828 94.332 287.257 94.332C287.761 94.332 288.209 94.4393 288.601 94.654C288.993 94.8687 289.297 95.186 289.511 95.606C289.735 96.026 289.847 96.5487 289.847 97.174V101.5H288.797V97.412C288.797 96.88 288.718 96.4693 288.559 96.18C288.401 95.8813 288.186 95.6713 287.915 95.55C287.654 95.4287 287.355 95.368 287.019 95.368C286.637 95.368 286.273 95.4613 285.927 95.648C285.591 95.8347 285.316 96.1053 285.101 96.46C284.896 96.8053 284.793 97.2253 284.793 97.72V101.5H283.743ZM294.764 101.668C294.092 101.668 293.494 101.514 292.972 101.206C292.458 100.898 292.052 100.469 291.754 99.918C291.464 99.3673 291.32 98.728 291.32 98C291.32 97.272 291.464 96.6327 291.754 96.082C292.052 95.5313 292.458 95.102 292.972 94.794C293.494 94.486 294.092 94.332 294.764 94.332C295.445 94.332 296.042 94.486 296.556 94.794C297.069 95.102 297.47 95.5313 297.76 96.082C298.058 96.6327 298.208 97.272 298.208 98C298.208 98.728 298.058 99.3673 297.76 99.918C297.47 100.469 297.069 100.898 296.556 101.206C296.042 101.514 295.445 101.668 294.764 101.668ZM294.764 100.646C295.23 100.646 295.641 100.539 295.996 100.324C296.36 100.1 296.644 99.792 296.85 99.4C297.055 98.9987 297.158 98.532 297.158 98C297.158 97.4587 297.055 96.992 296.85 96.6C296.644 96.208 296.36 95.9047 295.996 95.69C295.641 95.466 295.23 95.354 294.764 95.354C294.297 95.354 293.882 95.466 293.518 95.69C293.163 95.9047 292.883 96.208 292.678 96.6C292.472 96.992 292.37 97.4587 292.37 98C292.37 98.532 292.472 98.9987 292.678 99.4C292.883 99.792 293.163 100.1 293.518 100.324C293.882 100.539 294.297 100.646 294.764 100.646ZM303.251 101.668C302.775 101.668 302.337 101.575 301.935 101.388C301.534 101.192 301.189 100.921 300.899 100.576C300.61 100.231 300.395 99.8293 300.255 99.372V96.628C300.395 96.1613 300.61 95.76 300.899 95.424C301.189 95.0787 301.534 94.8127 301.935 94.626C302.337 94.43 302.775 94.332 303.251 94.332C303.877 94.332 304.437 94.4907 304.931 94.808C305.426 95.1253 305.818 95.5593 306.107 96.11C306.406 96.6607 306.555 97.2907 306.555 98C306.555 98.7093 306.406 99.3393 306.107 99.89C305.818 100.441 305.426 100.875 304.931 101.192C304.437 101.509 303.877 101.668 303.251 101.668ZM299.751 104.3V94.5H300.773V97.118L300.605 98L300.801 98.882V104.3H299.751ZM303.209 100.646C303.657 100.646 304.054 100.534 304.399 100.31C304.745 100.086 305.015 99.778 305.211 99.386C305.407 98.9847 305.505 98.5227 305.505 98C305.505 97.4773 305.407 97.02 305.211 96.628C305.015 96.2267 304.745 95.914 304.399 95.69C304.054 95.466 303.657 95.354 303.209 95.354C302.752 95.354 302.341 95.466 301.977 95.69C301.613 95.914 301.324 96.2267 301.109 96.628C300.904 97.02 300.801 97.4773 300.801 98C300.801 98.5227 300.904 98.9847 301.109 99.386C301.324 99.778 301.613 100.086 301.977 100.31C302.341 100.534 302.752 100.646 303.209 100.646ZM314.192 101.668C313.52 101.668 312.922 101.514 312.4 101.206C311.886 100.898 311.48 100.469 311.182 99.918C310.892 99.3673 310.748 98.728 310.748 98C310.748 97.272 310.892 96.6327 311.182 96.082C311.48 95.5313 311.886 95.102 312.4 94.794C312.922 94.486 313.52 94.332 314.192 94.332C314.873 94.332 315.47 94.486 315.984 94.794C316.497 95.102 316.898 95.5313 317.188 96.082C317.486 96.6327 317.636 97.272 317.636 98C317.636 98.728 317.486 99.3673 317.188 99.918C316.898 100.469 316.497 100.898 315.984 101.206C315.47 101.514 314.873 101.668 314.192 101.668ZM314.192 100.646C314.658 100.646 315.069 100.539 315.424 100.324C315.788 100.1 316.072 99.792 316.278 99.4C316.483 98.9987 316.586 98.532 316.586 98C316.586 97.4587 316.483 96.992 316.278 96.6C316.072 96.208 315.788 95.9047 315.424 95.69C315.069 95.466 314.658 95.354 314.192 95.354C313.725 95.354 313.31 95.466 312.946 95.69C312.591 95.9047 312.311 96.208 312.106 96.6C311.9 96.992 311.798 97.4587 311.798 98C311.798 98.532 311.9 98.9987 312.106 99.4C312.311 99.792 312.591 100.1 312.946 100.324C313.31 100.539 313.725 100.646 314.192 100.646ZM319.179 101.5V94.5H320.201V96.53L319.893 96.264C320.015 95.872 320.215 95.5313 320.495 95.242C320.775 94.9527 321.102 94.7287 321.475 94.57C321.858 94.4113 322.264 94.332 322.693 94.332C323.197 94.332 323.645 94.4393 324.037 94.654C324.429 94.8687 324.733 95.186 324.947 95.606C325.171 96.026 325.283 96.5487 325.283 97.174V101.5H324.233V97.412C324.233 96.88 324.154 96.4693 323.995 96.18C323.837 95.8813 323.622 95.6713 323.351 95.55C323.09 95.4287 322.791 95.368 322.455 95.368C322.073 95.368 321.709 95.4613 321.363 95.648C321.027 95.8347 320.752 96.1053 320.537 96.46C320.332 96.8053 320.229 97.2253 320.229 97.72V101.5H319.179ZM327.384 101.5V91.42L328.392 91.294L328.434 91.406V101.5H327.384ZM330.459 101.5V94.5H331.509V101.5H330.459ZM330.991 93.128C330.776 93.128 330.594 93.0533 330.445 92.904C330.295 92.7547 330.221 92.5727 330.221 92.358C330.221 92.1433 330.295 91.9613 330.445 91.812C330.594 91.6627 330.776 91.588 330.991 91.588C331.205 91.588 331.387 91.6627 331.537 91.812C331.686 91.9613 331.761 92.1433 331.761 92.358C331.761 92.5727 331.686 92.7547 331.537 92.904C331.387 93.0533 331.205 93.128 330.991 93.128ZM333.466 101.5V94.5H334.488V96.53L334.18 96.264C334.302 95.872 334.502 95.5313 334.782 95.242C335.062 94.9527 335.389 94.7287 335.762 94.57C336.145 94.4113 336.551 94.332 336.98 94.332C337.484 94.332 337.932 94.4393 338.324 94.654C338.716 94.8687 339.02 95.186 339.234 95.606C339.458 96.026 339.57 96.5487 339.57 97.174V101.5H338.52V97.412C338.52 96.88 338.441 96.4693 338.282 96.18C338.124 95.8813 337.909 95.6713 337.638 95.55C337.377 95.4287 337.078 95.368 336.742 95.368C336.36 95.368 335.996 95.4613 335.65 95.648C335.314 95.8347 335.039 96.1053 334.824 96.46C334.619 96.8053 334.516 97.2253 334.516 97.72V101.5H333.466ZM344.446 101.668C343.784 101.668 343.196 101.514 342.682 101.206C342.169 100.898 341.768 100.469 341.478 99.918C341.189 99.3673 341.044 98.728 341.044 98C341.044 97.272 341.184 96.6327 341.464 96.082C341.754 95.5313 342.15 95.102 342.654 94.794C343.168 94.486 343.756 94.332 344.418 94.332C345.072 94.332 345.641 94.4907 346.126 94.808C346.621 95.116 347.008 95.5547 347.288 96.124C347.568 96.684 347.708 97.3373 347.708 98.084V98.21L347.498 98.406H341.66V97.384H347.092L346.63 97.58C346.593 97.1133 346.472 96.7167 346.266 96.39C346.061 96.054 345.8 95.7973 345.482 95.62C345.165 95.4427 344.81 95.354 344.418 95.354C343.989 95.354 343.597 95.4613 343.242 95.676C342.888 95.8813 342.608 96.1753 342.402 96.558C342.197 96.9407 342.094 97.384 342.094 97.888V98.07C342.094 98.574 342.192 99.022 342.388 99.414C342.594 99.7967 342.874 100.1 343.228 100.324C343.583 100.539 343.989 100.646 344.446 100.646C344.904 100.646 345.296 100.539 345.622 100.324C345.949 100.109 346.206 99.8153 346.392 99.442H346.546L347.428 99.834C347.167 100.394 346.775 100.842 346.252 101.178C345.739 101.505 345.137 101.668 344.446 101.668ZM350.542 98.714C350.542 98.1633 350.607 97.7153 350.738 97.37C350.869 97.0247 351.037 96.7493 351.242 96.544C351.447 96.3293 351.662 96.1473 351.886 95.998C352.119 95.8487 352.339 95.704 352.544 95.564C352.749 95.4147 352.917 95.2327 353.048 95.018C353.179 94.8033 353.244 94.5233 353.244 94.178C353.244 93.6833 353.067 93.2913 352.712 93.002C352.367 92.7033 351.923 92.554 351.382 92.554C351.046 92.554 350.724 92.638 350.416 92.806C350.117 92.9647 349.87 93.1933 349.674 93.492C349.478 93.7813 349.361 94.122 349.324 94.514L349.17 94.542L348.19 94.332C348.255 93.7813 348.437 93.296 348.736 92.876C349.035 92.456 349.413 92.1293 349.87 91.896C350.337 91.6533 350.841 91.532 351.382 91.532C351.951 91.532 352.46 91.644 352.908 91.868C353.356 92.092 353.711 92.4047 353.972 92.806C354.233 93.198 354.364 93.6507 354.364 94.164C354.364 94.5747 354.294 94.9153 354.154 95.186C354.023 95.4567 353.846 95.6853 353.622 95.872C353.407 96.0587 353.179 96.236 352.936 96.404C352.703 96.5627 352.474 96.74 352.25 96.936C352.035 97.1227 351.858 97.3607 351.718 97.65C351.587 97.93 351.522 98.2847 351.522 98.714H350.542ZM351.032 101.612C350.799 101.612 350.603 101.537 350.444 101.388C350.295 101.229 350.22 101.033 350.22 100.8C350.22 100.567 350.295 100.371 350.444 100.212C350.603 100.053 350.799 99.974 351.032 99.974C351.265 99.974 351.457 100.053 351.606 100.212C351.765 100.371 351.844 100.567 351.844 100.8C351.844 101.033 351.765 101.229 351.606 101.388C351.457 101.537 351.265 101.612 351.032 101.612Z" fill="#F0F0F0"/>
</g>
<g filter="url(#filter3_d_1545_11256)">
<path d="M439 116.5C439 111.253 434.747 107 429.5 107H405C400.029 107 396 111.029 396 116V126H429.5C434.747 126 439 121.747 439 116.5Z" fill="#FFFCF4"/>
<path d="M433 114.5C433 114.224 432.776 114 432.5 114H404C403.448 114 403 114.448 403 115H432.5C432.776 115 433 114.776 433 114.5Z" fill="#263238"/>
<path d="M425 119.5C425 119.224 424.776 119 424.5 119H404C403.448 119 403 119.448 403 120H424.5C424.776 120 425 119.776 425 119.5Z" fill="#263238"/>
</g>
<defs>
<filter id="filter0_d_1545_11256" x="0" y="38" width="83.2959" height="80.7573" filterUnits="userSpaceOnUse" color-interpolation-filters="sRGB">
<feFlood flood-opacity="0" result="BackgroundImageFix"/>
<feColorMatrix in="SourceAlpha" type="matrix" values="0 0 0 0 0 0 0 0 0 0 0 0 0 0 0 0 0 0 127 0" result="hardAlpha"/>
<feOffset dy="12"/>
<feGaussianBlur stdDeviation="10"/>
<feComposite in2="hardAlpha" operator="out"/>
<feColorMatrix type="matrix" values="0 0 0 0 0.341692 0 0 0 0 0.341692 0 0 0 0 0.341692 0 0 0 0.25 0"/>
<feBlend mode="normal" in2="BackgroundImageFix" result="effect1_dropShadow_1545_11256"/>
<feBlend mode="normal" in="SourceGraphic" in2="effect1_dropShadow_1545_11256" result="shape"/>
</filter>
<filter id="filter1_d_1545_11256" x="260" y="153" width="179" height="78" filterUnits="userSpaceOnUse" color-interpolation-filters="sRGB">
<feFlood flood-opacity="0" result="BackgroundImageFix"/>
<feColorMatrix in="SourceAlpha" type="matrix" values="0 0 0 0 0 0 0 0 0 0 0 0 0 0 0 0 0 0 127 0" result="hardAlpha"/>
<feOffset dy="12"/>
<feGaussianBlur stdDeviation="10"/>
<feComposite in2="hardAlpha" operator="out"/>
<feColorMatrix type="matrix" values="0 0 0 0 0.341692 0 0 0 0 0.341692 0 0 0 0 0.341692 0 0 0 0.25 0"/>
<feBlend mode="normal" in2="BackgroundImageFix" result="effect1_dropShadow_1545_11256"/>
<feBlend mode="normal" in="SourceGraphic" in2="effect1_dropShadow_1545_11256" result="shape"/>
</filter>
<filter id="filter2_d_1545_11256" x="168" y="71" width="219" height="78" filterUnits="userSpaceOnUse" color-interpolation-filters="sRGB">
<feFlood flood-opacity="0" result="BackgroundImageFix"/>
<feColorMatrix in="SourceAlpha" type="matrix" values="0 0 0 0 0 0 0 0 0 0 0 0 0 0 0 0 0 0 127 0" result="hardAlpha"/>
<feOffset dy="12"/>
<feGaussianBlur stdDeviation="10"/>
<feComposite in2="hardAlpha" operator="out"/>
<feColorMatrix type="matrix" values="0 0 0 0 0.341692 0 0 0 0 0.341692 0 0 0 0 0.341692 0 0 0 0.25 0"/>
<feBlend mode="normal" in2="BackgroundImageFix" result="effect1_dropShadow_1545_11256"/>
<feBlend mode="normal" in="SourceGraphic" in2="effect1_dropShadow_1545_11256" result="shape"/>
</filter>
<filter id="filter3_d_1545_11256" x="376" y="99" width="83" height="59" filterUnits="userSpaceOnUse" color-interpolation-filters="sRGB">
<feFlood flood-opacity="0" result="BackgroundImageFix"/>
<feColorMatrix in="SourceAlpha" type="matrix" values="0 0 0 0 0 0 0 0 0 0 0 0 0 0 0 0 0 0 127 0" result="hardAlpha"/>
<feOffset dy="12"/>
<feGaussianBlur stdDeviation="10"/>
<feComposite in2="hardAlpha" operator="out"/>
<feColorMatrix type="matrix" values="0 0 0 0 0.341692 0 0 0 0 0.341692 0 0 0 0 0.341692 0 0 0 0.25 0"/>
<feBlend mode="normal" in2="BackgroundImageFix" result="effect1_dropShadow_1545_11256"/>
<feBlend mode="normal" in="SourceGraphic" in2="effect1_dropShadow_1545_11256" result="shape"/>
</filter>
</defs>
</svg>
